<svg width="27" height="32" viewBox="0 0 27 32" fill="none" xmlns="http://www.w3.org/2000/svg">
<path d="M20.9575 3.4248V4.10645C21.3991 4.15411 21.7629 4.30509 22.0444 4.56445H22.0454C22.3418 4.83236 22.5111 5.18346 22.5562 5.61133L22.5649 5.69336H21.6294L21.6206 5.62891C21.5958 5.45601 21.5193 5.29938 21.3882 5.1582L21.3872 5.15723C21.2768 5.03414 21.1339 4.94893 20.9575 4.89746V6.72168C21.2905 6.80945 21.565 6.90001 21.7798 6.99414L21.9526 7.07812C22.1178 7.17358 22.26 7.30296 22.3794 7.46484L22.439 7.55176C22.5682 7.76264 22.6304 8.0297 22.6304 8.34668C22.6303 8.61935 22.5618 8.88045 22.4263 9.12891L22.4253 9.12988C22.3227 9.31361 22.1836 9.47394 22.0093 9.61133L21.8237 9.74121C21.5794 9.8952 21.2896 9.98236 20.9575 10.0117V10.6777H20.3696V10.0059C20.3221 9.99189 20.2805 9.96927 20.2456 9.93652C20.196 9.88999 20.1629 9.82898 20.1401 9.76367C20.0954 9.63514 20.084 9.47057 20.0786 9.31055C20.073 9.14535 20.0732 8.98325 20.0562 8.84277C20.0543 8.82789 20.0515 8.81366 20.0493 8.7998C20.0409 8.77177 20.0334 8.74434 20.0249 8.71875C19.9976 8.63666 19.9715 8.58107 19.9458 8.55176C19.9355 8.54285 19.9241 8.53523 19.9126 8.52734C19.9027 8.52428 19.8915 8.52358 19.8784 8.52441C19.8443 8.52668 19.8058 8.54003 19.7583 8.55664C19.7365 8.56428 19.7116 8.57327 19.688 8.5791C19.665 8.58476 19.6363 8.58906 19.6069 8.58496C19.5743 8.58036 19.5424 8.56468 19.519 8.5332C19.505 8.51419 19.496 8.49261 19.4907 8.46973L19.3716 8.37793C19.267 8.35912 19.158 8.33399 19.0747 8.28027C18.9843 8.22185 18.927 8.13207 18.9253 8.00098L18.9233 7.84668L19.0464 7.94043L19.4341 8.2373C19.5268 8.25288 19.6344 8.26748 19.7329 8.29199C19.823 8.31442 19.9135 8.34798 19.9927 8.40137C20.0114 8.41133 20.0294 8.42402 20.0464 8.44141C20.0473 8.44217 20.0484 8.44259 20.0493 8.44336H20.0503C20.1367 8.51917 20.1751 8.64007 20.1958 8.76562C20.1998 8.77901 20.2045 8.79223 20.2085 8.80566C20.222 8.85158 20.2353 8.89766 20.2495 8.94238C20.2783 9.03273 20.3091 9.11215 20.3462 9.1709C20.3531 9.18185 20.3628 9.18945 20.3696 9.19824V7.36426C20.1203 7.29948 19.9038 7.23424 19.7212 7.16602L19.5376 7.0918C19.3619 7.01465 19.2061 6.90515 19.0698 6.76465L18.9399 6.61426C18.7701 6.39173 18.689 6.09749 18.689 5.74023C18.689 5.28257 18.8487 4.90035 19.1675 4.59863V4.59766L19.2935 4.49121C19.5833 4.2696 19.9434 4.142 20.3696 4.10449V3.4248H20.9575ZM20.9575 9.25488C21.1945 9.21459 21.3769 9.12316 21.5093 8.97754L21.5103 8.97656L21.564 8.91406C21.6824 8.76327 21.7417 8.58835 21.7417 8.38672C21.7417 8.13796 21.6659 7.95814 21.5239 7.83496L21.5229 7.83398C21.3889 7.71331 21.2011 7.61277 20.9575 7.53223V9.25488ZM20.3696 4.87012C20.1404 4.90469 19.9588 4.98506 19.8218 5.11328L19.8208 5.11426C19.6723 5.24848 19.5942 5.44041 19.5942 5.7002C19.5943 5.94969 19.6672 6.13002 19.8042 6.25293L19.9272 6.34766C20.0436 6.42497 20.1912 6.49204 20.3696 6.55273V4.87012Z" fill="#1E1E1E" stroke="#1E1E1E" stroke-width="0.15"/>
<path d="M22.9602 11.9185C23.8906 11.4681 24.6728 10.7367 25.2078 9.8168C25.7429 8.8969 26.0067 7.8298 25.966 6.75046C25.9254 5.67111 25.582 4.628 24.9793 3.75302C24.3766 2.87805 23.5417 2.21051 22.5801 1.83482C21.6186 1.45913 20.5736 1.39217 19.5772 1.6424C18.5809 1.89263 17.678 2.44881 16.9828 3.24062C16.2875 4.03242 15.8311 5.02428 15.6712 6.09078" stroke="#1E1E1E" stroke-linecap="round"/>
<path d="M4 8H17C17.9569 8 18.6244 8.00066 19.1279 8.06836C19.6171 8.13413 19.876 8.25494 20.0605 8.43945C20.2451 8.62396 20.3659 8.88289 20.4316 9.37207C20.4993 9.87563 20.5 10.5431 20.5 11.5V28.5C20.5 28.9727 20.5 29.3027 20.4824 29.5605C20.4695 29.7503 20.4475 29.8806 20.418 29.9814L20.3857 30.0742C20.2525 30.3958 20.0122 30.6594 19.708 30.8223L19.5742 30.8857C19.4616 30.9324 19.3138 30.9651 19.0605 30.9824C18.8027 31 18.4727 31 18 31H4C3.04308 31 2.37563 30.9993 1.87207 30.9316C1.38289 30.8659 1.12396 30.7451 0.939453 30.5605C0.754944 30.376 0.634128 30.1171 0.568359 29.6279C0.500662 29.1244 0.5 28.4569 0.5 27.5V11.5C0.5 10.5431 0.500662 9.87563 0.568359 9.37207C0.634128 8.88289 0.754944 8.62396 0.939453 8.43945C1.12396 8.25494 1.38289 8.13413 1.87207 8.06836C2.37563 8.00066 3.04308 8 4 8Z" stroke="#1E1E1E"/>
<path d="M16.5938 17.5V17.5C16.9719 17.5 17.1609 17.5 17.3137 17.4495C17.6143 17.3502 17.8502 17.1143 17.9495 16.8137C18 16.6609 18 16.4719 18 16.0937V12.5C18 11.5572 18 11.0858 17.7071 10.7929C17.4142 10.5 16.9428 10.5 16 10.5H5C4.05719 10.5 3.58579 10.5 3.29289 10.7929C3 11.0858 3 11.5572 3 12.5V15.5C3 16.4428 3 16.9142 3.29289 17.2071C3.58579 17.5 4.05719 17.5 5 17.5H13.7812" stroke="#1E1E1E" stroke-linecap="round"/>
<rect x="7.5" y="21" width="2" height="2" rx="0.5" stroke="#1E1E1E"/>
<rect x="3.5" y="21" width="2" height="2" rx="0.5" stroke="#1E1E1E"/>
<rect x="7.5" y="25" width="2" height="2" rx="0.5" stroke="#1E1E1E"/>
<rect x="3.5" y="25" width="2" height="2" rx="0.5" stroke="#1E1E1E"/>
<path d="M12.5 25C12.7395 25 12.8943 25.0007 13.0127 25.0088C13.0693 25.0127 13.109 25.0171 13.1367 25.0225L13.1914 25.0381C13.2831 25.0761 13.3605 25.1404 13.415 25.2217L13.4619 25.3086C13.4705 25.3294 13.4834 25.3733 13.4912 25.4873C13.4993 25.6057 13.5 25.7605 13.5 26C13.5 26.2395 13.4993 26.3943 13.4912 26.5127C13.4873 26.5693 13.4829 26.609 13.4775 26.6367L13.4619 26.6914C13.4239 26.7831 13.3596 26.8605 13.2783 26.915L13.1914 26.9619C13.1706 26.9705 13.1267 26.9834 13.0127 26.9912C12.8943 26.9993 12.7395 27 12.5 27C12.2605 27 12.1057 26.9993 11.9873 26.9912C11.9307 26.9873 11.891 26.9829 11.8633 26.9775L11.8086 26.9619C11.7169 26.9239 11.6395 26.8596 11.585 26.7783L11.5381 26.6914C11.5295 26.6706 11.5166 26.6267 11.5088 26.5127C11.5007 26.3943 11.5 26.2395 11.5 26C11.5 25.7605 11.5007 25.6057 11.5088 25.4873C11.5127 25.4307 11.5171 25.391 11.5225 25.3633L11.5381 25.3086C11.5761 25.2169 11.6404 25.1395 11.7217 25.085L11.8086 25.0381C11.8294 25.0295 11.8733 25.0166 11.9873 25.0088C12.1057 25.0007 12.2605 25 12.5 25Z" stroke="#1E1E1E"/>
<path d="M12.5 21C12.7395 21 12.8943 21.0007 13.0127 21.0088C13.0693 21.0127 13.109 21.0171 13.1367 21.0225L13.1914 21.0381C13.2831 21.0761 13.3605 21.1404 13.415 21.2217L13.4619 21.3086C13.4705 21.3294 13.4834 21.3733 13.4912 21.4873C13.4993 21.6057 13.5 21.7605 13.5 22C13.5 22.2395 13.4993 22.3943 13.4912 22.5127C13.4873 22.5693 13.4829 22.609 13.4775 22.6367L13.4619 22.6914C13.4239 22.7831 13.3596 22.8605 13.2783 22.915L13.1914 22.9619C13.1706 22.9705 13.1267 22.9834 13.0127 22.9912C12.8943 22.9993 12.7395 23 12.5 23C12.2605 23 12.1057 22.9993 11.9873 22.9912C11.9307 22.9873 11.891 22.9829 11.8633 22.9775L11.8086 22.9619C11.7169 22.9239 11.6395 22.8596 11.585 22.7783L11.5381 22.6914C11.5295 22.6706 11.5166 22.6267 11.5088 22.5127C11.5007 22.3943 11.5 22.2395 11.5 22C11.5 21.7605 11.5007 21.6057 11.5088 21.4873C11.5127 21.4307 11.5171 21.391 11.5225 21.3633L11.5381 21.3086C11.5761 21.2169 11.6404 21.1395 11.7217 21.085L11.8086 21.0381C11.8294 21.0295 11.8733 21.0166 11.9873 21.0088C12.1057 21.0007 12.2605 21 12.5 21Z" stroke="#1E1E1E"/>
<rect x="15.5" y="21" width="2" height="6" rx="0.5" stroke="#1E1E1E"/>
</svg>
