<svg width="40" height="40" viewBox="0 0 40 40" fill="none" xmlns="http://www.w3.org/2000/svg">
<rect x="1.86667" y="1.86667" width="36.2667" height="36.2667" rx="18.1333" fill="#03276B"/>
<rect x="1.86667" y="1.86667" width="36.2667" height="36.2667" rx="18.1333" stroke="white" stroke-width="2.26667"/>
<path d="M28.0593 18.7072V16.2607C28.0593 15.0089 27.0445 13.9941 25.7926 13.9941H25.0301C24.1017 13.9941 23.2671 13.4279 22.924 12.5652L22.8429 12.3615C22.4997 11.4988 21.6652 10.9326 20.7368 10.9326H18.2847C17.3995 10.9326 16.5953 11.4479 16.2254 12.2521L16.0311 12.6746C15.6612 13.4788 14.857 13.9941 13.9718 13.9941H13.2C11.9482 13.9941 10.9333 15.0089 10.9333 16.2607V23.7771C10.9333 25.0289 11.9482 26.0437 13.2 26.0437H18.3" stroke="#FCFCFC" stroke-linecap="round" stroke-linejoin="round"/>
<path d="M23.1322 18.0837C22.8205 17.4569 22.3221 16.9403 21.7002 16.5993C21.0782 16.2583 20.3605 16.1082 19.6379 16.168C18.9153 16.2278 18.2202 16.4948 17.6405 16.9352C17.0609 17.3756 16.6226 17.9697 16.3813 18.6423C16.1399 19.3149 16.1063 20.0359 16.2846 20.714C16.4629 21.392 16.8452 21.9968 17.383 22.4518" stroke="#FCFCFC" stroke-linecap="round"/>
<circle cx="24.5333" cy="24.5324" r="4.53333" fill="#FCFCFC"/>
<path d="M24.5334 22.2656V24.5323M24.5334 26.799V24.5323M24.5334 24.5323H22.2667M24.5334 24.5323H26.8001" stroke="#03276B" stroke-linecap="round" stroke-linejoin="round"/>
</svg>
