<svg width="17" height="17" viewBox="0 0 17 17" fill="none" xmlns="http://www.w3.org/2000/svg">
<path d="M7.23979 1.06738H4.04744C2.36439 1.06738 1 2.43177 1 4.11483V12.9524C1 14.6355 2.36439 15.9999 4.04744 15.9999H12.885C14.5681 15.9999 15.9325 14.6355 15.9325 12.9524V9.76717" stroke="black" stroke-linecap="round" stroke-linejoin="round"/>
<path d="M13.0232 2.42546L13.4243 2.02946C14.0068 1.45452 14.9415 1.44441 15.5388 2.00396V2.00396C16.1579 2.58406 16.1863 3.56035 15.599 4.17273L15.2321 4.55535M13.0232 2.42546L15.2321 4.55535M13.0232 2.42546L7.53797 7.84018M15.2321 4.55535L9.85829 10.1589M9.85829 10.1589L8.98649 11.068L6 11.6661L6.59074 8.77525L7.53797 7.84018M9.85829 10.1589L7.53797 7.84018" stroke="black" stroke-linecap="round" stroke-linejoin="round"/>
</svg>
