<svg width="24" height="24" viewBox="0 0 24 24" fill="none" xmlns="http://www.w3.org/2000/svg">
<path d="M3.39172 17.5799L4.53573 16.3627C3.28309 15.1577 2.29887 13.6667 1.65569 11.9999C3.27971 7.65415 7.75978 4.28557 11.9998 4.28557C13.0909 4.30131 14.1721 4.50984 15.1999 4.90272L16.4399 3.56557C15.0341 2.92858 13.5261 2.59087 11.9998 2.57129C9.39222 2.67636 6.87047 3.59777 4.7463 5.22164C2.62212 6.84553 0.988607 9.10069 0.0476599 11.7084C-0.0158866 11.8967 -0.0158866 12.103 0.0476599 12.2913C0.758269 14.3116 1.90403 16.1236 3.39172 17.5799Z" fill="black"/>
<path d="M8.8009 11.7686C8.85653 10.9472 9.18625 10.1747 9.72978 9.59235C10.2733 9.01001 10.9943 8.65675 11.7609 8.59714L13.209 7.03714C12.3976 6.80823 11.5443 6.81122 10.7343 7.04577C9.92434 7.28031 9.18588 7.73827 8.59258 8.37394C7.99927 9.00962 7.57184 9.80081 7.35293 10.6687C7.13401 11.5365 7.13123 12.4507 7.34488 13.32L8.8009 11.7686ZM23.9531 11.7086C23.0358 9.14846 21.4395 6.93173 19.3611 5.33143L23.2011 1.20857L22.0731 0L0.800781 22.7914L1.9288 24L6.00886 19.6286C7.82813 20.7717 9.8922 21.3917 12.0009 21.4286C14.6086 21.3235 17.1303 20.4021 19.2545 18.7783C21.3787 17.1543 23.0122 14.8992 23.9531 12.2914C24.0166 12.1031 24.0166 11.8969 23.9531 11.7086ZM15.201 12C15.1976 12.6001 15.0473 13.1887 14.7651 13.7071C14.4828 14.2254 14.0786 14.6553 13.5927 14.9538C13.1068 15.2522 12.5562 15.4089 11.9961 15.4079C11.436 15.407 10.886 15.2486 10.4009 14.9486L14.753 10.2857C15.0406 10.8049 15.1951 11.3963 15.201 12ZM12.0009 19.7143C10.3226 19.6829 8.67602 19.2183 7.20088 18.36L9.23291 16.1829C10.1572 16.8699 11.2774 17.1874 12.3979 17.0798C13.5183 16.9723 14.568 16.4463 15.3634 15.594C16.1589 14.7418 16.6498 13.6172 16.7501 12.4167C16.8506 11.2162 16.5543 10.016 15.913 9.02571L18.209 6.56571C20.0447 7.9157 21.4803 9.80179 22.3451 12C20.7211 16.3457 16.241 19.7143 12.0009 19.7143Z" fill="black"/>
</svg>
