<svg width="122" height="32" viewBox="0 0 122 32" fill="none" xmlns="http://www.w3.org/2000/svg">
<path d="M52.2391 28.1201H0V31.9791H52.2391V28.1201Z" fill="#D61327"/>
<path d="M52.2392 21.0967H29.2969V24.9557H52.2392V21.0967Z" fill="#D61327"/>
<path d="M52.2392 14.0742H29.2969V17.9332H52.2392V14.0742Z" fill="#D61327"/>
<path d="M25.8524 25.0571H0.0136719V22.6125V13.1484L12.6346 0.12207L25.8524 13.2531V25.0571Z" fill="#00266F"/>
<path d="M15.2138 7.50805L7.52541 15.2435C7.48855 15.2854 7.49206 15.3483 7.53419 15.3832C7.54121 15.3902 7.55174 15.3954 7.56052 15.4007L10.8957 16.2039C10.9483 16.2179 10.9799 16.2737 10.9659 16.3261L8.26266 22.5599C8.2451 22.6105 8.27319 22.6664 8.32409 22.6839C8.35745 22.6943 8.39431 22.6874 8.42064 22.6647L15.7931 14.5101C15.8264 14.4769 15.8264 14.4246 15.7931 14.3914C15.7826 14.3809 15.7703 14.3739 15.758 14.3704L13.125 13.5497C13.0776 13.5323 13.053 13.4816 13.0705 13.4345C13.0705 13.4328 13.0705 13.431 13.0723 13.4275L15.3894 7.59536C15.3894 7.53599 15.342 7.4871 15.2823 7.48535C15.2577 7.48535 15.2331 7.49234 15.2138 7.50805Z" fill="white" stroke="white" stroke-width="0.175535" stroke-miterlimit="10"/>
<path d="M41.2449 0H36.2422L47.1604 10.8611H51.8121L41.2449 0Z" fill="#D61327"/>
<path d="M31.7645 0H26.7617L37.68 10.8611H42.3316L31.7645 0Z" fill="#D61327"/>
<path d="M22.5145 0H17.5117L28.43 10.8611H33.0816L22.5145 0Z" fill="#D61327"/>
<path d="M60.9812 15.4694C60.1421 15.1044 59.4821 14.5858 59.0029 13.9153C58.5237 13.2448 58.2832 12.4607 58.2832 11.5667H61.0268C61.0865 12.2372 61.3533 12.789 61.8255 13.2221C62.2977 13.6551 62.9612 13.8699 63.8143 13.8699C64.6674 13.8699 65.3888 13.6569 65.8821 13.2325C66.3771 12.8082 66.6246 12.2599 66.6246 11.5894C66.6246 11.0673 66.4701 10.643 66.1647 10.3147C65.8575 9.98645 65.4749 9.73325 65.0185 9.55515C64.5603 9.37529 63.9284 9.18321 63.1192 8.97368C62.0993 8.70477 61.2726 8.43411 60.6354 8.15648C59.9982 7.88058 59.4558 7.45278 59.0047 6.87131C58.5535 6.28984 58.3306 5.51455 58.3306 4.54543C58.3306 3.6514 58.5553 2.86738 59.0047 2.19686C59.454 1.52633 60.0842 1.01122 60.8934 0.653256C61.7026 0.295295 62.64 0.117188 63.7037 0.117188C65.2168 0.117188 66.4578 0.494357 67.425 1.24695C68.3922 1.99954 68.9276 3.03326 69.0329 4.34462H66.1998C66.1542 3.77887 65.8856 3.29344 65.3906 2.89008C64.8956 2.48672 64.2444 2.28591 63.4351 2.28591C62.7014 2.28591 62.1011 2.47275 61.6359 2.84468C61.1707 3.21836 60.939 3.75442 60.939 4.45463C60.939 4.93133 61.0847 5.32247 61.3779 5.62805C61.671 5.93362 62.0414 6.17634 62.4908 6.35445C62.9401 6.53255 63.5545 6.72638 64.3339 6.93592C65.3678 7.21879 66.2103 7.50342 66.8633 7.78629C67.5146 8.06917 68.0693 8.50571 68.5274 9.09416C68.9838 9.68261 69.2137 10.4701 69.2137 11.4532C69.2137 12.2442 68.9996 12.9881 68.573 13.69C68.1465 14.3902 67.5233 14.9543 66.7071 15.3786C65.8909 15.8029 64.9272 16.0159 63.8178 16.0159C62.7681 16.0159 61.8237 15.8343 60.9847 15.4676L60.9812 15.4694Z" fill="#01266F"/>
<path d="M82.338 0.316406V2.39607H78.1796V15.8589H75.6168V2.39782H71.4355V0.316406H82.3397H82.338Z" fill="#01266F"/>
<path d="M94.3446 12.6839H87.8025L86.6791 15.8601H84.0039L89.5999 0.294922H92.5682L98.166 15.8601H95.4681L94.3446 12.6839ZM93.625 10.6042L91.085 3.38037L88.5222 10.6042H93.625Z" fill="#01266F"/>
<path d="M110.687 0.316406V2.39607H106.527V15.8589H103.964V2.39782H99.7832V0.316406H110.687Z" fill="#01266F"/>
<path d="M115.838 2.37459V6.93729H121.234V9.01696H115.838V13.7805H121.908V15.8601H113.275V0.294922H121.908V2.37459H115.838Z" fill="#01266F"/>
<path d="M61.5409 23.3735V25.523H65.0252V27.5206H61.5409V29.8517H65.4816V31.9244H58.9395V21.3008H65.4816V23.3735H61.5409Z" fill="#D41428"/>
<path d="M77.6208 31.9244H75.0193L70.6678 25.3711V31.9244H68.0664V21.3008H70.6678L75.0193 27.8838V21.3008H77.6208V31.9244Z" fill="#D41428"/>
<path d="M83.006 23.3735V25.523H86.4903V27.5206H83.006V29.8517H86.9467V31.9244H80.4045V21.3008H86.9467V23.3735H83.006Z" fill="#D41428"/>
<path d="M94.9802 31.9244L92.7597 27.9135H92.1366V31.9244H89.5352V21.3008H93.9007C94.7415 21.3008 95.4594 21.4475 96.0528 21.7391C96.6461 22.0324 97.0902 22.4323 97.3833 22.9422C97.6765 23.452 97.8239 24.0195 97.8239 24.6447C97.8239 25.3501 97.6238 25.9822 97.2236 26.5357C96.8233 27.091 96.2318 27.4839 95.4507 27.7161L97.9152 31.9226H94.9785L94.9802 31.9244ZM92.1348 26.0817H93.748C94.2237 26.0817 94.5818 25.9665 94.8205 25.7343C95.0592 25.502 95.1786 25.1737 95.1786 24.7512C95.1786 24.3286 95.0592 24.03 94.8205 23.7978C94.5818 23.5655 94.2254 23.4503 93.748 23.4503H92.1348V26.0835V26.0817Z" fill="#D41428"/>
<path d="M107.44 24.6607C107.247 24.308 106.971 24.0374 106.612 23.8505C106.252 23.6637 105.829 23.5711 105.341 23.5711C104.498 23.5711 103.824 23.847 103.317 24.3953C102.81 24.9454 102.557 25.6788 102.557 26.5972C102.557 27.5768 102.824 28.3399 103.355 28.8899C103.887 29.44 104.621 29.7141 105.553 29.7141C106.192 29.7141 106.733 29.5535 107.173 29.2304C107.614 28.9074 107.937 28.4429 108.139 27.8387H104.837V25.9319H110.496V28.3381C110.303 28.9842 109.977 29.5849 109.515 30.1384C109.053 30.6937 108.467 31.1425 107.758 31.4847C107.049 31.827 106.247 31.9998 105.355 31.9998C104.3 31.9998 103.359 31.7711 102.532 31.3118C101.705 30.8526 101.061 30.2153 100.6 29.3981C100.138 28.5809 99.908 27.6484 99.908 26.599C99.908 25.5495 100.138 24.6136 100.6 23.7912C101.061 22.9687 101.702 22.3279 102.523 21.8686C103.345 21.4094 104.282 21.1807 105.337 21.1807C106.615 21.1807 107.693 21.488 108.571 22.1044C109.448 22.7208 110.029 23.5729 110.312 24.6625H107.437L107.44 24.6607Z" fill="#D41428"/>
<path d="M122.001 21.3008L118.304 28.4146V31.9261H115.703V28.4146L112.006 21.3008H114.957L117.026 25.75L119.08 21.3008H122.001Z" fill="#D41428"/>
</svg>
