<svg width="28" height="30" viewBox="0 0 28 30" fill="none" xmlns="http://www.w3.org/2000/svg">
<path d="M5.16897 23.4783V8.26796C5.16897 7.7171 5.61553 7.27055 6.16638 7.27055H12.7566M5.16897 23.4783H14.1456C14.6964 23.4783 15.143 23.9249 15.143 24.4758V26.2212C15.0599 27.0524 15.3923 28.7147 17.3872 28.7147M5.16897 23.4783H1.92742C1.65199 23.4783 1.42871 23.7016 1.42871 23.977V24.7251C1.42871 26.9285 3.21493 28.7147 5.41835 28.7147H17.3872M19.8807 15.7485V26.2212C19.8807 27.0524 19.382 28.7147 17.3872 28.7147M19.8807 15.7485C23.8743 15.7485 27.1118 12.511 27.1118 8.5173C27.1118 4.52364 23.8743 1.28613 19.8807 1.28613C16.3121 1.28613 13.3474 3.87102 12.7566 7.27055M19.8807 15.7485C15.887 15.7485 12.6495 12.511 12.6495 8.5173C12.6495 8.09215 12.6862 7.67557 12.7566 7.27055" stroke="#1E1E1E" stroke-linecap="round"/>
<path d="M9.99996 12.334L8.66663 12.334" stroke="#1E1E1E" stroke-linecap="round"/>
<path d="M12.6666 15.667L8.66663 15.667" stroke="#1E1E1E" stroke-linecap="round"/>
<path d="M15.3333 19L8.66663 19" stroke="#1E1E1E" stroke-linecap="round"/>
<path d="M20.0944 3.88477C20.2091 3.90812 20.2955 4.00922 20.2955 4.13086V4.81152C20.7875 4.88327 21.1929 5.06338 21.4996 5.36328H21.4987C21.792 5.64404 21.9933 5.96092 22.0963 6.31348L22.1061 6.37402C22.1114 6.51283 21.9947 6.62598 21.858 6.62598C21.771 6.62582 21.6964 6.58164 21.651 6.5166L21.6158 6.44434C21.5411 6.20229 21.3903 5.96392 21.1559 5.72949L21.1549 5.72754C20.9445 5.51194 20.6611 5.36637 20.2955 5.29883V8.31445C20.6837 8.43392 21.0078 8.55711 21.2653 8.68555H21.2662C21.5612 8.82572 21.8068 9.03662 22.0035 9.31348L22.0758 9.42578C22.2325 9.69918 22.3053 10.039 22.3053 10.4355C22.3053 10.7558 22.232 11.0614 22.0875 11.3516L22.0885 11.3525C21.9635 11.6157 21.7702 11.8361 21.5143 12.0137L21.401 12.0869C21.0986 12.2698 20.7274 12.3602 20.2955 12.3701V12.9336C20.2953 13.0723 20.1823 13.1846 20.0436 13.1846C19.905 13.1843 19.7928 13.0722 19.7926 12.9336V12.3418C19.4552 12.2954 19.1469 12.1971 18.8717 12.0371L18.8698 12.0361C18.5617 11.8499 18.3142 11.6185 18.1315 11.3408L18.1295 11.3369C18.0172 11.1544 17.9328 10.9656 17.8776 10.7715L17.8317 10.5752C17.8031 10.4172 17.9291 10.2852 18.0768 10.2852L18.1237 10.29C18.1987 10.3041 18.2602 10.351 18.2965 10.4131L18.3278 10.4941L18.358 10.6191C18.3963 10.746 18.4562 10.8793 18.5387 11.0195L18.6412 11.1719C18.7548 11.3202 18.9012 11.4569 19.0826 11.5811L19.2682 11.6895C19.4222 11.7661 19.597 11.8189 19.7926 11.8535V8.67871C19.3981 8.56015 19.0715 8.44445 18.8151 8.3291L18.8112 8.32715C18.525 8.18776 18.283 7.98552 18.0865 7.72363L18.0856 7.72168C17.8788 7.43829 17.7819 7.07282 17.7819 6.63867C17.7819 6.10713 17.9623 5.66021 18.3258 5.31152L18.4733 5.18652C18.8174 4.92455 19.2612 4.79541 19.7926 4.78516V4.13086C19.7926 3.99208 19.9049 3.87913 20.0436 3.87891L20.0944 3.88477ZM20.2955 11.8867C20.7896 11.8731 21.1507 11.7316 21.399 11.4775L21.4928 11.3721C21.6985 11.1168 21.8024 10.8071 21.8024 10.4355C21.8024 10.0844 21.7262 9.81596 21.5865 9.61816L21.5856 9.61719C21.4373 9.40103 21.2504 9.239 21.024 9.12891L21.0201 9.12695C20.8288 9.02597 20.5874 8.92799 20.2955 8.83301V11.8867ZM19.7926 5.26758C19.3312 5.27896 18.9713 5.40487 18.6998 5.63574H18.6989C18.4273 5.86605 18.2858 6.19358 18.2858 6.63867C18.2858 6.97492 18.3576 7.23278 18.4899 7.42383C18.638 7.62075 18.8243 7.77364 19.0465 7.88477C19.2458 7.97595 19.4942 8.06789 19.7926 8.16113V5.26758Z" fill="#1E1E1E" stroke="#1E1E1E" stroke-width="0.3"/>
</svg>
