<svg width="24" height="25" viewBox="0 0 24 25" fill="none" xmlns="http://www.w3.org/2000/svg">
<path d="M13.0891 12.7325C15.7424 12.1986 17.3509 10.8364 17.9147 10.1154C17.9577 10.0604 18.0423 10.0604 18.0853 10.1154C18.6491 10.8364 20.2576 12.1986 22.9109 12.7325C22.9612 12.7426 22.9968 12.787 22.9921 12.838C22.7335 15.6155 21.3924 21 18 21C14.6076 21 13.2665 15.6155 13.0079 12.838C13.0032 12.787 13.0388 12.7426 13.0891 12.7325Z" stroke="#1E1E1E" stroke-linecap="round"/>
<path d="M16.5001 16L17.4619 17.0768L20.3447 14.6318" stroke="#1E1E1E" stroke-linecap="round" stroke-linejoin="round"/>
<path d="M14.3355 9C12.6396 6.42651 13.3832 3.45275 14.2797 1.70639C14.4395 1.39511 14.2229 1.0002 13.873 1.0002L5.87205 1.00002C5.52214 1.00001 5.30526 1.39459 5.46507 1.70587C6.50539 3.73216 7.33997 7.41125 4.39629 10.2C0.234388 14.1429 -2.17513 24 9.87248 24C12.2121 24 14.0065 23.6283 15.3487 23.0003" stroke="#1E1E1E" stroke-linecap="round"/>
<path d="M4.15522 16.5567C4.0822 17.8709 4.76855 20.4995 8.09808 20.4995" stroke="#1E1E1E" stroke-linecap="round"/>
<path d="M6.58691 4.72461C7.53612 5.38175 10.2231 6.69604 13.3774 6.69604" stroke="#1E1E1E" stroke-linecap="round"/>
</svg>
