<svg width="28" height="29" viewBox="0 0 28 29" fill="none" xmlns="http://www.w3.org/2000/svg">
<path d="M1 7.98148V7.98148C1 6.33485 2.33486 5 3.98148 5H16C17.6569 5 19 6.34315 19 8V25C19 26.6569 17.6569 28 16 28H4C2.34315 28 1 26.6569 1 25V11.8148" stroke="#1E1E1E" stroke-linecap="round"/>
<path d="M6.9 2.66667L7.51658 1.52485C7.69118 1.20153 8.02903 1 8.39649 1H12.1535C12.521 1 12.8588 1.20153 13.0334 1.52485L13.65 2.66667M6 10H15" stroke="#1E1E1E" stroke-linecap="round"/>
<path d="M4 17H10" stroke="#1E1E1E" stroke-linecap="round"/>
<path d="M4 20.5H16" stroke="#1E1E1E" stroke-linecap="round"/>
<path d="M4 24H16" stroke="#1E1E1E" stroke-linecap="round"/>
<path d="M21 21C21.5304 21 22.6249 20.4688 23 20C23.3751 19.5312 23.5 19.163 23.5 18.5C23.5 17.837 23.3751 17.4688 23 17C22.6249 16.5312 21.5304 16 21 16" stroke="#1E1E1E" stroke-linecap="round"/>
<path d="M20.9004 13.2L21.132 12.3662C21.1922 12.1498 21.3892 12 21.6138 12H22.7314C22.9809 12 23.1923 12.184 23.2266 12.4312L23.3005 12.9631C23.3213 13.1129 23.4088 13.2452 23.5385 13.3231L23.7428 13.4457C23.9011 13.5407 24.0989 13.5407 24.2573 13.4457L24.6328 13.2203C24.8442 13.0935 25.1164 13.1396 25.2742 13.329L26.4473 14.7367C26.5795 14.8954 26.6006 15.119 26.5003 15.2996L26.1349 15.9572C26.051 16.1082 26.051 16.2918 26.1349 16.4428L26.1905 16.5428C26.2787 16.7016 26.446 16.8 26.6276 16.8H26.8587C27.1248 16.8 27.3442 17.0083 27.3581 17.274L27.4804 19.6233C27.492 19.8463 27.3544 20.0499 27.1433 20.1223L26.515 20.3377C26.3981 20.3778 26.3001 20.4598 26.2401 20.5679L26.1665 20.7004C26.0662 20.881 26.0872 21.1046 26.2195 21.2633L26.4123 21.4947C26.5613 21.6735 26.5672 21.9313 26.4267 22.1167L25.3101 23.5908C25.1402 23.815 24.8188 23.855 24.5992 23.6793L24.1946 23.3556C24.0743 23.2594 23.9117 23.2353 23.7688 23.2925V23.2925C23.6065 23.3574 23.5 23.5146 23.5 23.6894V24.5C23.5 24.7761 23.2762 25 23 25H21.5271C21.3119 25 21.1208 24.8623 21.0527 24.6581L20.8334 24" stroke="#1E1E1E" stroke-linecap="round"/>
</svg>
