<svg width="26" height="16" viewBox="0 0 26 16" fill="none" xmlns="http://www.w3.org/2000/svg">
<path d="M24 9.5L20.9136 1.32343C20.8402 1.1288 20.6539 1 20.4459 1H5.14871C4.93628 1 4.74703 1.13424 4.67682 1.33473L0.853344 12.2523C0.671572 12.7713 1.53588 13.3547 2.0531 13.1678C3.68375 12.5787 5.07155 13.4891 5.88791 14.439C6.11147 14.6992 6.52957 14.7193 6.76719 14.4719C9.06453 12.0802 11.2459 13.228 12.393 14.4711C12.6218 14.719 13.0305 14.7268 13.26 14.4796C15.5203 12.045 17.6876 13.1893 18.839 14.4461C19.0725 14.7009 19.4946 14.7045 19.7257 14.4475C21.1672 12.845 22.7234 12.8321 23.9657 13.3448C24.4637 13.5504 25.3084 12.9801 25.1467 12.4662L25 12" stroke="black" stroke-linecap="round"/>
<path d="M6.25391 14.5L9.17202 1" stroke="black" stroke-linecap="round"/>
<path d="M12.5059 14.5V1" stroke="black" stroke-linecap="round"/>
<path d="M19.177 14.5L16.6758 1" stroke="black" stroke-linecap="round"/>
<path d="M2.08398 9.50069C3.02384 8.25901 4.97633 6.68956 7.08647 10.0007C8.02633 8.52251 10.2138 6.45349 12.5058 10.0011C13.385 8.56234 15.9045 6.69014 18.342 10.0013C19.1758 8.68077 21.2147 5.97317 23.7614 9.00049" stroke="black" stroke-linecap="round"/>
<path d="M3.75195 4.50025C4.55032 3.25858 6.67007 2.50049 8.33756 5.00096C9.13593 3.52278 11.2557 3.00075 12.5063 5.00075C13.34 3.41314 15.8413 2.50075 17.5088 5.00096C18.217 3.68045 20.01 2.50075 22.0944 4.58826" stroke="black" stroke-linecap="round"/>
</svg>
