<svg width="28" height="27" viewBox="0 0 28 27" fill="none" xmlns="http://www.w3.org/2000/svg">
<path d="M5.40723 9.49512H19.1045C19.2958 9.49512 19.4706 9.59672 19.5664 9.75781L19.6025 9.83008L22.9541 18.0869C23.0975 18.4401 22.8372 18.8261 22.4561 18.8262H2.05566C1.69857 18.8259 1.44827 18.4876 1.53613 18.1543L1.55859 18.0869L4.90918 9.83008C4.99147 9.62754 5.1886 9.49512 5.40723 9.49512Z" stroke="black"/>
<path d="M14.6038 9.46484L16.4822 18.8571" stroke="black"/>
<path d="M9.90771 9.46484L8.02926 18.8571" stroke="black"/>
<path d="M3.33374 13.6914L21.1791 13.6914" stroke="black"/>
<path d="M23.1491 11.0415C23.9283 10.713 24.6046 10.1807 25.1069 9.50034C25.6091 8.82001 25.9188 8.01691 26.0032 7.1755C26.0876 6.33409 25.9437 5.48548 25.5866 4.71894C25.2295 3.9524 24.6724 3.29626 23.974 2.81955C23.2755 2.34285 22.4615 2.06318 21.6175 2.00999C20.7736 1.9568 19.9309 2.13204 19.1781 2.51727C18.4253 2.90251 17.7903 3.48351 17.3397 4.19915C16.8892 4.91479 16.6399 5.73861 16.618 6.58396" stroke="black" stroke-linecap="round"/>
<path d="M13.6652 20.9316V23.0837C13.6652 23.6565 14.1295 24.1209 14.7024 24.1209H15.9642C16.2506 24.1209 16.4828 24.3531 16.4828 24.6395V25.4807C16.4828 25.7672 16.2506 25.9994 15.9642 25.9994H8.54841C8.26198 25.9994 8.02979 25.7672 8.02979 25.4807V24.6395C8.02979 24.3531 8.26198 24.1209 8.54841 24.1209H9.81021C10.3831 24.1209 10.8475 23.6565 10.8475 23.0837V20.9316" stroke="black"/>
</svg>
