<svg width="32" height="32" viewBox="0 0 32 32" fill="none" xmlns="http://www.w3.org/2000/svg">
<path d="M5 25.7027C5 25.7027 6.14072 24.9621 7.14968 24.9621C10.7325 24.9621 11.6692 27.5587 15.0318 27.9245C16.145 28.0456 16.7813 28.0024 17.8981 27.9245C22.1667 27.6271 27.9748 24.3049 29.1505 23.6086C29.2947 23.5232 29.4229 23.4213 29.5299 23.2922C29.8605 22.8931 30.4758 22.0001 29.3631 22C28.3184 21.9999 23.8473 22.7869 21.5 23.2136" stroke="#070707" stroke-linecap="round"/>
<path d="M2 16H3C4.10457 16 5 16.8954 5 18V25C5 26.1046 4.10457 27 3 27H2V16Z" stroke="#070707" stroke-linecap="round" stroke-linejoin="round"/>
<path d="M5 17.5341C5 17.5341 7.62111 16.1608 9.5 16.0192C10.0942 15.9744 10.5 16.0193 11.1037 16.0391C11.7074 16.0589 18.3225 19.1324 18.7333 19.7767C19.1442 20.421 19.029 20.7648 18.7333 21.2717C18.4028 21.8385 17.9704 22.0194 17.2074 22.0192C16.4444 22.0191 12.6296 20.5242 12.6296 20.5242" stroke="#070707" stroke-linecap="round"/>
<circle cx="23" cy="10" r="6" stroke="#070707" stroke-linecap="round"/>
<path d="M23.2248 7.4557H23.2946C23.5581 7.4557 23.8269 7.49712 24.1008 7.57998C24.3798 7.65823 24.6176 7.7756 24.814 7.93211L24.1705 8.57422C24.0517 8.45915 23.9096 8.36939 23.7442 8.30495C23.5788 8.2359 23.4057 8.20138 23.2248 8.20138V9.58228L23.2558 9.58918C23.4729 9.63982 23.6848 9.69735 23.8915 9.7618C24.1034 9.82624 24.2894 9.91139 24.4496 10.0173C24.615 10.1185 24.7468 10.2474 24.845 10.4039C24.9483 10.5604 25 10.756 25 10.9908C25 11.2209 24.9535 11.4258 24.8605 11.6053C24.7674 11.7802 24.6408 11.9321 24.4806 12.061C24.3204 12.1853 24.1318 12.2842 23.9147 12.3579C23.7028 12.4315 23.4729 12.4799 23.2248 12.5029V13H22.8062V12.5098C22.4651 12.5144 22.137 12.4684 21.8217 12.3717C21.5116 12.275 21.2377 12.1162 21 11.8953L21.7054 11.2532C21.8295 11.4097 21.9897 11.5293 22.186 11.6122C22.3824 11.6951 22.5891 11.7457 22.8062 11.7641V10.3072L22.7674 10.3003C22.5504 10.2451 22.3437 10.1853 22.1473 10.1208C21.9509 10.0518 21.7752 9.96433 21.6202 9.85846C21.4703 9.74799 21.3514 9.6168 21.2636 9.4649C21.1757 9.3084 21.1318 9.11507 21.1318 8.88493C21.1318 8.67779 21.1783 8.49137 21.2713 8.32566C21.3643 8.15995 21.4884 8.01726 21.6434 7.89758C21.7984 7.7733 21.9767 7.67434 22.1783 7.60069C22.3798 7.52704 22.5891 7.48101 22.8062 7.4626V7H23.2248V7.4557ZM22.8062 8.21519C22.6253 8.24281 22.4625 8.31185 22.3178 8.42232C22.1783 8.52819 22.1085 8.66858 22.1085 8.8435C22.1085 8.94937 22.1266 9.03452 22.1628 9.09896C22.2041 9.16341 22.2558 9.21864 22.3178 9.26467C22.3798 9.3107 22.4522 9.34983 22.5349 9.38205C22.6227 9.40967 22.7132 9.44189 22.8062 9.47871V8.21519ZM23.2248 11.7641C23.3333 11.7457 23.4341 11.7181 23.5271 11.6812C23.6253 11.6398 23.7106 11.5915 23.7829 11.5362C23.8553 11.4764 23.9121 11.4074 23.9535 11.3291C24 11.2463 24.0233 11.1542 24.0233 11.0529C24.0233 10.9517 23.9974 10.8665 23.9457 10.7975C23.8992 10.7284 23.8372 10.6709 23.7597 10.6249C23.6822 10.5788 23.5969 10.5397 23.5039 10.5075C23.4109 10.4753 23.3178 10.4453 23.2248 10.4177V11.7641Z" fill="#070707"/>
</svg>
